<svg width="18" height="20" viewBox="0 0 18 20" fill="none" xmlns="http://www.w3.org/2000/svg">
<path d="M15 13.75V16.25C15 16.9402 14.4402 17.5 13.75 17.5H3.75C3.05977 17.5 2.5 16.9402 2.5 16.25V13.75C2.5 13.0598 1.94023 12.5 1.25 12.5C0.559766 12.5 0 13.0598 0 13.75V16.25C0 18.3211 1.67891 20 3.75 20H13.75C15.8211 20 17.5 18.3211 17.5 16.25V13.75C17.5 13.0598 16.9402 12.5 16.25 12.5C15.5598 12.5 15 13.0586 15 13.75ZM7.86719 0.366217L2.86719 5.36622C2.37852 5.85489 2.3793 6.6459 2.86719 7.1338C3.35547 7.62208 4.14648 7.62208 4.63477 7.1338L7.5 4.26954V12.5C7.5 13.191 8.05898 13.75 8.75 13.75C9.44102 13.75 10 13.191 10 12.5V4.26954L12.8664 7.13594C13.3547 7.62422 14.1457 7.62422 14.634 7.13594C15.1223 6.64766 15.1223 5.85665 14.634 5.36837L9.63398 0.368366C9.14453 -0.122064 8.35547 -0.122064 7.86719 0.366217Z" fill="#EB4432"/>
</svg>
