<svg width="18" height="16" viewBox="0 0 18 16" fill="none" xmlns="http://www.w3.org/2000/svg">
<path d="M0.25 1.75C0.25 1.05977 0.809766 0.5 1.5 0.5H16.5C17.1914 0.5 17.75 1.05977 17.75 1.75C17.75 2.44141 17.1914 3 16.5 3H1.5C0.809766 3 0.25 2.44141 0.25 1.75ZM0.25 8C0.25 7.30859 0.809766 6.75 1.5 6.75H16.5C17.1914 6.75 17.75 7.30859 17.75 8C17.75 8.69141 17.1914 9.25 16.5 9.25H1.5C0.809766 9.25 0.25 8.69141 0.25 8ZM16.5 15.5H1.5C0.809766 15.5 0.25 14.9414 0.25 14.25C0.25 13.5586 0.809766 13 1.5 13H16.5C17.1914 13 17.75 13.5586 17.75 14.25C17.75 14.9414 17.1914 15.5 16.5 15.5Z" fill="#EB4432"/>
</svg>
